PathFileType	4	(X/Y/Z)	Kaydara	
DataRate	CameraRate	NumFrames	NumMarkers	Units	OrigDataRate	OrigDataStartFrame	OrigNumFrames	
120.00	120.00	4	72	mm	120.00	1	268	
Frame#	Time	Hips			RightUpLeg			RightLeg			RightFoot			RightFoot_End			LeftUpLeg			LeftLeg			LeftFoot			LeftFoot_End			Spine			Spine1			Spine2			Spine3			Neck			Head			Head_End			RightShoulder			RightArm			RightForeArm			RightHand			RightHandThumb1			RightHandThumb2			RightHandThumb3			RightHandThumb3_End			RightInHandIndex			RightHandIndex1			RightHandIndex2			RightHandIndex3			RightHandIndex3_End			RightInHandMiddle			RightHandMiddle1			RightHandMiddle2			RightHandMiddle3			RightHandMiddle3_End			RightInHandRing			RightHandRing1			RightHandRing2			RightHandRing3			RightHandRing3_End			RightInHandPinky			RightHandPinky1			RightHandPinky2			RightHandPinky3			RightHandPinky3_End			LeftShoulder			LeftArm			LeftForeArm			LeftHand			LeftHandThumb1			LeftHandThumb2			LeftHandThumb3			LeftHandThumb3_End			LeftInHandIndex			LeftHandIndex1			LeftHandIndex2			LeftHandIndex3			LeftHandIndex3_End			LeftInHandMiddle			LeftHandMiddle1			LeftHandMiddle2			LeftHandMiddle3			LeftHandMiddle3_End			LeftInHandRing			LeftHandRing1			LeftHandRing2			LeftHandRing3			LeftHandRing3_End			LeftInHandPinky			LeftHandPinky1			LeftHandPinky2			LeftHandPinky3			LeftHandPinky3_End			
		X1	Y1	Z1	X2	Y2	Z2	X3	Y3	Z3	X4	Y4	Z4	X5	Y5	Z5	X6	Y6	Z6	X7	Y7	Z7	X8	Y8	Z8	X9	Y9	Z9	X10	Y10	Z10	X11	Y11	Z11	X12	Y12	Z12	X13	Y13	Z13	X14	Y14	Z14	X15	Y15	Z15	X16	Y16	Z16	X17	Y17	Z17	X18	Y18	Z18	X19	Y19	Z19	X20	Y20	Z20	X21	Y21	Z21	X22	Y22	Z22	X23	Y23	Z23	X24	Y24	Z24	X25	Y25	Z25	X26	Y26	Z26	X27	Y27	Z27	X28	Y28	Z28	X29	Y29	Z29	X30	Y30	Z30	X31	Y31	Z31	X32	Y32	Z32	X33	Y33	Z33	X34	Y34	Z34	X35	Y35	Z35	X36	Y36	Z36	X37	Y37	Z37	X38	Y38	Z38	X39	Y39	Z39	X40	Y40	Z40	X41	Y41	Z41	X42	Y42	Z42	X43	Y43	Z43	X44	Y44	Z44	X45	Y45	Z45	X46	Y46	Z46	X47	Y47	Z47	X48	Y48	Z48	X49	Y49	Z49	X50	Y50	Z50	X51	Y51	Z51	X52	Y52	Z52	X53	Y53	Z53	X54	Y54	Z54	X55	Y55	Z55	X56	Y56	Z56	X57	Y57	Z57	X58	Y58	Z58	X59	Y59	Z59	X60	Y60	Z60	X61	Y61	Z61	X62	Y62	Z62	X63	Y63	Z63	X64	Y64	Z64	X65	Y65	Z65	X66	Y66	Z66	X67	Y67	Z67	X68	Y68	Z68	X69	Y69	Z69	X70	Y70	Z70	X71	Y71	Z71	X72	Y72	Z72	

1	0.0	8446.805	859.65103	-201.189	8544.90454555212	858.0452055615851	-233.34109009844872	8390.089405121358	471.22268748110264	-300.0265454925533	8408.194243915748	36.95654735757169	-342.49286615408016	8310.640446153631	-35.680496184630826	-178.37930143418023	8359.159696776633	834.0426328628658	-154.62918082305765	8239.496670104552	434.7180675992414	-108.57573023365705	8188.818737387032	55.61950358991229	57.43693989775565	8211.43535503721	10.562541629927129	242.0952159591525	8395.108489985147	978.5893071996749	-262.28692744129626	8338.174877660847	1039.4570594277548	-312.6007531956299	8271.521979428013	1094.7595817215674	-365.40414766202275	8199.395270622646	1136.934866619568	-416.1473996144227	8121.615041537781	1182.5735486274511	-466.9609874029079	8079.170744825185	1254.3242358004295	-421.61004675584854	8056.402007006627	1338.7937742539195	-287.39596528438324	8168.883232096015	1174.2497902686496	-472.0967542464899	8253.273213788381	1170.4537241076634	-560.1163726900717	8302.60620304969	933.5394787030357	-586.5263175029803	8385.543119477865	792.202912292893	-657.9225374987775	8384.524789986364	787.7764760306512	-676.4661338218227	8369.782989214957	780.6912969224242	-691.7860942309139	8361.068093596014	774.0895563946136	-700.6008547377348	8355.12995513199	767.1593625738644	-706.3632357379377	8391.937786365675	780.985065319242	-671.5244815473611	8399.038287663223	759.4196458741758	-685.4210855305502	8393.587843566253	746.587938302053	-695.0740369693631	8382.680636653888	742.8365409268483	-701.4975219085043	8368.581174522951	742.5821293599588	-707.0990577955397	8395.415992600223	777.3034198198986	-665.9972044334095	8404.225935511478	754.2771337889055	-676.5618323934184	8398.701346562511	739.8620693571876	-686.3207121586214	8385.74513680943	735.1379188983426	-693.6987970459215	8370.416416085613	734.7631817789763	-699.647235026943	8397.809223147822	775.2153678801465	-661.7283895063647	8408.12470806504	752.6575520146998	-667.4639193598136	8403.726554458184	739.7077829108038	-675.1617231202109	8391.450747197267	734.9462266368178	-681.8493372729478	8377.142837399413	734.4968651502501	-687.2390121977837	8399.439601774155	773.7272617498024	-656.478026540693	8410.301147776994	751.9878829216326	-658.475490751955	8407.384139602596	741.1153385778405	-663.3539763240412	8398.722711275559	737.3989978656305	-667.6100460831303	8386.216620056644	736.8609473473233	-672.0265111284773	8125.37744736045	1163.9590585825367	-425.9575288031621	8066.03342470921	1096.3198519169878	-339.26073036855	8173.830219828075	946.4925557895705	-518.1736619437823	8368.678880188512	845.6310091590653	-510.6716168837112	8353.59659889028	847.0758166486056	-517.1545662317965	8353.278382265371	843.1921887478051	-547.1027714100368	8354.50487991798	838.6851323023837	-569.9847931086301	8356.766169653858	833.385801055528	-590.7938096139827	8356.13494066181	840.6720878782254	-523.453056555572	8347.83139989477	826.7317181641171	-557.2557983735919	8348.831050284321	817.4301912715389	-589.1082268685414	8352.637763631463	814.4167965741849	-609.2092988603549	8357.937115293706	813.790630165443	-626.0482491699591	8360.68472972256	836.2737789275684	-528.1830506301521	8355.044754052997	820.2975983802419	-563.7093090524454	8356.77130710084	809.6131529971136	-598.9915151237913	8361.669046628387	805.7210583091219	-623.4945864676423	8367.615809915775	804.9112064040365	-642.0418891214127	8364.050038325664	833.5034939727525	-530.5975967473446	8361.738322066089	816.7263797383762	-564.3432079296709	8363.90254234709	806.8927139382722	-595.5765078388786	8368.976960756316	802.8617723091074	-619.4672100280372	8374.7343537017	801.9691840142751	-637.0274450725992	8368.649922591945	830.8610964385201	-532.910101091325	8369.158039507181	813.7772363143187	-565.0811707251651	8371.930256905322	805.1631848340095	-590.6956786257647	8376.134250258552	801.8652227615371	-608.4138491261247	8381.523666894533	800.8686315828479	-624.1375229196702
2	0.008	8446.805	859.65103	-201.189	8544.841347216876	858.0485268252764	-233.30779829300207	8390.138392341003	471.184423750138	-299.8367060622202	8408.406224734128	37.017583246755606	-342.358612786709	8310.991888148032	-35.653040640967504	-178.27172539969385	8359.213995788054	834.0337414669491	-154.66810621539594	8239.535396198933	434.7317259205457	-108.52054803067179	8188.822849863454	55.687140356643916	57.60276280503427	8211.54411204652	10.667945644706542	242.2427563798859	8395.151259613713	978.6135259701879	-262.2642963070589	8338.24922861295	1039.52009205125	-312.5572411506342	8271.636749256153	1094.8766035942306	-365.3406693244579	8199.551470263506	1137.114406060038	-416.07156117238577	8121.814760560966	1182.8181291366598	-466.87231484881016	8079.39053159669	1254.5768696533132	-421.51974904188853	8056.601549612953	1339.0401549404437	-287.30925691465154	8169.062202894425	1174.4941740697507	-471.98032537655627	8253.456302124336	1170.845016077112	-559.8821756539463	8303.130481228089	934.120467513032	-586.3489271219531	8386.296366435658	793.3909784188	-658.0416810795202	8385.325894987676	789.0951769187269	-676.5280036977115	8370.656595592807	782.1133429892088	-691.8786783321991	8361.991715231463	775.5775846472652	-700.7275314336019	8356.094866223737	768.6972752543544	-706.5292012226054	8392.739758222673	782.2973222938442	-671.6211307328397	8399.920858420088	760.886355722898	-685.554311666598	8394.53623740841	748.1459270474202	-695.2621143238246	8383.66942830262	744.4352750053022	-701.7226503178737	8369.603049707834	744.2037939888505	-707.3568432698574	8396.214330699888	778.5932459048231	-666.12852850289	8405.100919080287	755.7054803086533	-676.7475798007749	8399.647427464291	741.3865383706461	-686.5708065038083	8386.739606466344	736.7098752026787	-693.9957483476799	8371.446915118484	736.3594161773656	-699.9809673078414	8398.602851334306	776.4855612911276	-661.8830698144664	8408.982686006213	754.0353016352408	-667.6870396742894	8404.645636414647	741.1655353448718	-675.4454376613147	8392.41604474968	736.4477780101935	-682.18064372206	8378.141794030389	736.0202932764251	-687.6060367997759	8400.226143231563	774.9691227542097	-656.6602064744445	8411.142079271622	753.3115008196174	-658.7367101351144	8408.272371927123	742.4966556134359	-663.6704552451168	8399.64386544054	738.8091834653948	-667.9644981112	8387.167137194467	738.2887404482558	-672.4144794287524	8125.567651883069	1164.15677105791	-425.9040068138374	8066.20239510587	1096.4781340763031	-339.3765630932944	8174.0379673580865	946.9644704370418	-518.3130119926913	8368.933954261534	846.5979487682143	-510.73603008113616	8353.946188916478	848.1466105796192	-517.2212622582956	8353.697471352147	844.3106848492937	-547.1441996367	8354.960607903498	839.8343735621814	-570.010199593873	8357.242381327713	834.5585562492489	-590.8072066340419	8356.451112381188	841.7503044472662	-523.5290387682497	8348.197035741421	827.94151919681	-557.3404387735357	8349.230748777973	818.6954263953385	-589.1805621505661	8353.064183035587	815.688465396112	-609.2619678587732	8358.389391309025	815.0487172786975	-626.0765350899726	8360.96717673959	837.3389674161716	-528.2621433075516	8355.357205293065	821.4840938192538	-563.7985343472194	8357.116316662243	810.857947086286	-599.0676725309215	8362.044081418413	806.9725629489855	-623.5471896766563	8368.018060915774	806.1473389996303	-642.0678966553824	8364.307333209144	834.5564972264913	-530.6788641668221	8362.000487410749	817.878623370713	-564.4360237549988	8364.18832636126	808.0933361472732	-595.6582828698654	8369.289179042173	804.0675743190732	-619.5264505951494	8375.07096438991	803.1599196506462	-637.0617668556713	8368.877294561787	831.8932741097769	-532.992063287702	8369.371234555436	814.888905037546	-565.1748210424169	8372.154919114873	806.3093592851579	-590.7809808834454	8376.374591959922	803.0131272290694	-608.482953135159	8381.783543429363	802.0020109586944	-624.1846901863012
3	0.017	8446.805	859.65103	-201.189	8544.773614059948	858.0504818272998	-233.27507604051402	8390.188334079901	471.1436984696463	-299.645288204872	8408.62371610224	37.08133317793993	-342.2301326920432	8311.35493036242	-35.624972173535454	-178.17215511299597	8359.272588352593	834.0261226857677	-154.7065119148578	8239.578094772272	434.74732338200397	-108.46211618872411	8188.829296246776	55.75639396388142	57.77026913029438	8211.657699755147	10.773941759834745	242.39085255118243	8395.195358414794	978.6382402697016	-262.2414075471417	8338.325660528759	1039.584545263075	-312.5128209667086	8271.754517102116	1094.9963136194633	-365.27553309564394	8199.711576115993	1137.2981460887538	-415.9932806068076	8122.019337297305	1183.0684713386338	-466.7803058354714	8079.614975311019	1254.835389380023	-421.42679682559975	8056.806013999797	1339.2931570967264	-287.2206529699476	8169.244529223997	1174.7432842015985	-471.8602022102337	8253.638447412495	1171.2402057530442	-559.6407965422137	8303.655023858757	934.7114593934555	-586.1582206123361	8387.045864565373	794.5968460668839	-658.14472118614	8386.12371022207	790.4333167346199	-676.5726867729663	8371.527999306258	783.5560703016639	-691.9535431811624	8362.913798841115	777.087074709671	-700.8362173152882	8357.058714307444	770.257228106062	-706.6770343991543	8393.538061939505	783.6289052440134	-671.7008088442291	8400.799927876955	762.3742342213189	-685.6697847976211	8395.48172247519	749.7261529047396	-695.4321115022403	8384.656003394442	746.0567189895687	-701.9295940845566	8370.623499728868	745.8484307029959	-707.5964243696936	8397.008766130484	779.9020936039499	-666.2431889377729	8405.972035718203	757.154481163416	-676.9160671339301	8400.59025710573	742.9327812200997	-686.8033271394324	8387.731645175752	738.3041534828595	-694.2750207184781	8372.47584192543	737.9782485976673	-700.2970091861481	8399.392401490973	777.7745162481821	-662.0213219375185	8409.83644989634	755.4330560959442	-667.8933966589595	8405.561009369942	742.6442183556302	-675.7121607976148	8393.378407792552	737.9707621182899	-682.4948813244102	8379.138615622092	737.5654011007573	-687.9559931665849	8401.008442319167	776.2293765387933	-656.8262657159903	8411.978524229206	754.6544317534052	-658.9816850110096	8409.156473518779	743.8979434998653	-663.9705791578184	8400.561430270373	740.2396658095874	-668.3025735376032	8388.114759662149	739.7370258225604	-672.7860917505416	8125.763627189189	1164.3601630887538	-425.84823575970677	8066.380719185468	1096.6452804110877	-339.49297884717043	8174.251267285672	947.447363018955	-518.4439402339323	8369.185349624027	847.5797581264462	-510.79076417860983	8354.293101274021	849.2335029943025	-517.2779310520077	8354.114435895266	845.4456477806189	-547.1742216217322	8355.41453427731	841.0002793774479	-570.0231833310012	8357.717007339103	835.7480905402691	-590.8072854411384	8356.764516918749	842.8446110214636	-523.5948396160672	8348.560885316372	829.1686692882581	-557.4135790755577	8349.62912011065	819.9784085006783	-589.2400568759081	8353.489412629113	816.9778162652035	-609.3008789693545	8358.84049131504	816.3242220215814	-626.0902472080987	8361.246642461312	838.4200194548584	-528.3309276670013	8355.667516237761	822.6875584982738	-563.8760965231296	8357.459655196668	812.1201100669084	-599.1306911103625	8362.417595671155	808.2413415534454	-623.5855410924711	8368.41879908131	807.4004481755086	-642.0787566052595	8364.561472552467	835.6251766332507	-530.7497708909866	8362.260105682302	819.0473852172298	-564.5172299627443	8364.471938556533	809.3107877879854	-595.7271508556255	8369.599352738596	805.2900944825617	-619.5717046282998	8375.405529234495	804.3670844822869	-637.0812570182516	8369.101265537458	832.9408382712986	-533.0636137701633	8369.581442591505	816.0165702609577	-565.2568945542862	8372.376839461118	807.4717178291958	-590.8536553584543	8376.612257829463	804.1771048156724	-608.5386361513368	8382.04072761487	803.1511903292079	-624.2176844975393
4	0.025	8446.805	859.65103	-201.189	8544.701371947673	858.0510754273188	-233.2429253434805	8390.23921994382	471.1005260942535	-299.4523215565072	8408.846670624176	37.14777855860204	-342.10741850481946	8311.729483708357	-35.59629663651283	-178.0805706876823	8359.335450701215	834.0197727515481	-154.74439499562638	8239.624745043639	434.76485083759627	-108.4004542724468	8188.838066137477	55.82725004397377	57.93943169813026	8211.776084970905	10.88051480124269	242.53948392571795	8395.240775649285	978.6634450083798	-262.21826509932504	8338.404155664128	1039.650405377215	-312.4675017781163	8271.875256364576	1095.1186861281033	-365.2087535734509	8199.875552739537	1137.4860471733077	-415.91257713161986	8122.228727011578	1183.324521303372	-466.68498468400384	8079.844029494473	1255.0997394241697	-421.3312118169052	8057.015354796398	1339.5527229775987	-287.1301716974526	8169.430174920604	1174.9970708722992	-471.73641389791027	8253.81962987006	1171.639228185762	-559.3922925043408	8304.179764585524	935.3123424333395	-585.954271547178	8387.791536083492	795.8203004565613	-658.2317057878228	8386.91814929455	791.7906584603447	-676.6002418106015	8372.397100444288	785.0192247933179	-692.0107452499718	8363.83423566729	778.6177617377741	-700.9269653608953	8358.02138373445	771.8389482368526	-706.8067837085262	8394.332612908374	784.9795784918044	-671.7635696850158	8401.675400718794	763.8830201756941	-685.7675568910365	8396.424193069453	751.3283398345518	-695.5840746189193	8385.64024853874	747.700590296314	-702.1183948617032	8371.642403991864	747.5157533142878	-707.8178385010406	8397.79921605672	781.2297312439614	-666.3412342237577	8406.83919310601	758.6238819578062	-677.067338212646	8401.529732103612	744.500527925335	-687.0183107969219	8388.721140399686	739.9204761587615	-694.5366451709244	8373.50307614827	739.6193976589134	-700.5953868636766	8400.17779233937	779.082004530909	-662.1431906847381	8410.685911400584	756.8505697298947	-668.0830278485187	8406.47257563121	744.143573356874	-675.9619231756352	8394.337729954095	739.5149133970818	-682.792074833238	8380.13318852159	739.1319196527024	-688.2889013494287	8401.78641961625	777.5077998184865	-656.9762446250693	8412.810398003914	756.0164393782723	-659.2104464365661	8410.036352713976	745.3189566601027	-664.25437252715	8401.475308001187	741.6901947699205	-668.6242920081966	8389.059383378362	741.2055506341779	-673.1413632748865	8125.965326140287	1164.569186963594	-425.79023134756903	8066.568338170247	1096.821235836548	-339.6099612399162	8174.4700710199495	947.9411317578808	-518.5664628919981	8369.433048247183	848.5762603830832	-510.83584902279915	8354.637302786428	850.3362992432503	-517.3246027550991	8354.529231909162	846.5968754337871	-547.1928757971727	8355.866609177565	842.1826430402863	-570.0237886537741	8358.189994339891	836.9541938943216	-590.7940953990977	8357.075125498739	843.9548122768981	-523.6504889615617	8348.922910099962	830.4129521612888	-557.4752529697626	8350.02611966801	821.2789129879756	-589.2867515001653	8353.913403796316	818.2846239852325	-609.3260787035304	8359.29036324088	817.6169217916197	-626.08943829588	8361.523102974603	839.5167423627859	-528.3894339826943	8355.975656100061	823.9077807271398	-563.9420298091575	8357.801285940655	813.3994215919438	-599.1806125206198	8362.789548119112	809.5271732593676	-623.6096897023033	8368.817979521575	808.6703160056231	-642.0745248189294	8364.812436128504	836.7093418503758	-530.8103473471454	8362.517153698458	820.2324597420684	-564.5868605402384	8364.753351241323	810.5448562437633	-595.7831523013647	8369.907450181123	806.5291199318408	-619.6030197242723	8375.738013340273	805.5904685199873	-637.0859696185255	8369.321819807554	834.0036023852507	-533.1247833470809	8369.788647980642	817.1600336362874	-565.3274254361585	8372.595999803056	808.6500572393481	-590.9137414961739	8376.84722736268	805.3569524943141	-608.5809428172048	8382.295196392195	804.3159694376145	-624.2365562338034
